<svg data-v-423bf9ae="" xmlns="http://www.w3.org/2000/svg" viewBox="0 0 60.77232044680981 60" class="icon"><!----><!----><!----><!----><g data-v-423bf9ae="" id="c890f2e2-694e-4990-ae69-727456fc850f" transform="matrix(1.266089908688752,0,0,1.266089908688752,-2.532179603653887,-2.9183370221888367)" stroke="none" fill="black"><path d="M11.73 41.065c-2.38 0-4.31 1.94-4.31 4.32 0 2.37 1.93 4.31 4.31 4.31s4.31-1.94 4.31-4.31c0-2.38-1.93-4.32-4.31-4.32z"></path><path d="M2 38.655v4.52c0 1.77 1.44 3.21 3.21 3.21h.3c-.06-.33-.09-.66-.09-1 0-3.48 2.83-6.32 6.31-6.32s6.31 2.84 6.31 6.32c0 .34-.03.67-.09 1h16.09c-.06-.33-.09-.66-.09-1 0-3.48 2.83-6.32 6.31-6.32 3.48 0 6.31 2.84 6.31 6.32 0 .34-.03.67-.09 1h.31c1.77 0 3.21-1.44 3.21-3.21v-4.52H2z"></path><path d="M40.26 41.065c-2.37 0-4.31 1.94-4.31 4.32 0 2.37 1.94 4.31 4.31 4.31 2.38 0 4.31-1.94 4.31-4.31 0-2.38-1.93-4.32-4.31-4.32zM49.99 35.665c0-1.02-.49-1.99-1.32-2.6l-5.13-3.72c-.21-.15-.36-.36-.44-.6l-1.82-5.53a3.203 3.203 0 0 0-3.05-2.21H20.886a92.246 92.246 0 0 1-1.854 2.947 3.001 3.001 0 0 1-2.502 1.353c-1 0-1.934-.497-2.497-1.33a92.39 92.39 0 0 1-1.871-2.97H5.2c-1.76 0-3.2 1.44-3.2 3.21v12.44h47.99v-.99zm-34.44-3.19c0 .56-.45 1-1 1H7.41c-.55 0-1-.44-1-1v-6.05c0-.56.45-1 1-1h7.14c.55 0 1 .44 1 1v6.05zm11.56 0c0 .56-.45 1-1 1h-7.14c-.56 0-1-.44-1-1v-6.05c0-.56.44-1 1-1h7.14c.55 0 1 .44 1 1v6.05zm12.32.58a1 1 0 0 1-.81.41l-8.1.01c-.26 0-.52-.1-.7-.29a1 1 0 0 1-.3-.71v-6.05c0-.56.45-1 1-1h6.11c.44 0 .82.27.95.68l1.99 6.05c.1.31.05.64-.14.9z"></path><path d="M16.53 23.305c.33 0 .65-.17.83-.45.65-.99 6.35-9.75 6.35-13.36 0-3.96-3.22-7.19-7.18-7.19-3.97 0-7.19 3.23-7.19 7.19 0 3.61 5.7 12.37 6.35 13.36.19.28.5.45.84.45zm-3.21-13.74c0-1.77 1.44-3.21 3.21-3.21 1.76 0 3.2 1.44 3.2 3.21s-1.44 3.21-3.2 3.21c-1.77 0-3.21-1.44-3.21-3.21z"></path></g><!----></svg>